<svg xmlns="http://www.w3.org/2000/svg" xmlns:xlink="http://www.w3.org/1999/xlink" width="840" height="581.04"><rect width="840" height="581.04" rx="5" ry="5" class="a"/><svg y="0%" x="0%"><circle cx="20" cy="20" r="6" fill="#ff5f58"/><circle cx="40" cy="20" r="6" fill="#ffbd2e"/><circle cx="60" cy="20" r="6" fill="#18c132"/></svg><svg height="521.04" viewBox="0 0 80 52.104" width="800" x="15" xmlns="http://www.w3.org/2000/svg" xmlns:xlink="http://www.w3.org/1999/xlink" y="50"><style>@keyframes m{0%{transform:translateX(0)}.02%{transform:translateX(-80px)}6.46%{transform:translateX(-160px)}6.49%{transform:translateX(-240px)}6.55%{transform:translateX(-320px)}6.59%{transform:translateX(-400px)}6.64%{transform:translateX(-480px)}6.69%{transform:translateX(-560px)}6.73%{transform:translateX(-640px)}6.75%{transform:translateX(-720px)}24.51%{transform:translateX(-800px)}25.89%{transform:translateX(-880px)}25.9%{transform:translateX(-960px)}30.09%{transform:translateX(-1040px)}30.31%{transform:translateX(-1120px)}30.32%{transform:translateX(-1200px)}35.91%{transform:translateX(-1280px)}37.05%{transform:translateX(-1360px)}37.89%{transform:translateX(-1440px)}37.91%{transform:translateX(-1520px)}37.92%{transform:translateX(-1600px)}37.94%{transform:translateX(-1680px)}93.12%{transform:translateX(-1760px)}94.29%{transform:translateX(-1840px)}94.32%{transform:translateX(-2000px)}to{transform:translateX(-2080px)}}.a{fill:#282d35}.f,.g,.h{white-space:pre}.f{fill:#a8cc8c;font-weight:700}.g,.h{fill:#b9c0cb}.h{fill:#71bef2;font-weight:700}.i{fill:#b9c0cb}.j{fill:#282d35;white-space:pre}</style><g font-family="Monaco,Consolas,Menlo,'Bitstream Vera Sans Mono','Powerline Symbols',monospace" font-size="1.67"><defs><symbol id="1"><text y="1.67" class="f">user@laptop-yavorskyi</text><text x="21.042" y="1.67" class="g">:</text><text x="22.044" y="1.67" class="h">~/Desktop/DevOps/project-week-4/k3s-hello-world</text><text x="69.138" y="1.67" class="g">$</text></symbol><symbol id="2"><text y="1.67" class="f">user@laptop-yavorskyi</text><text x="21.042" y="1.67" class="g">:</text><text x="22.044" y="1.67" class="h">~/Desktop/DevOps/project-week-4/k3s-hello-world</text><text x="69.138" y="1.67" class="g">$</text><path class="i" d="M71.142 0h9v2.171h-9z"/><text x="71.142" y="1.67" class="j">sudo k3s</text></symbol><symbol id="3"><text y="1.67" class="f">user@laptop-yavorskyi</text><text x="21.042" y="1.67" class="g">:</text><text x="22.044" y="1.67" class="h">~/Desktop/DevOps/project-week-4/k3s-hello-world</text><text x="69.138" y="1.67" class="g">$</text><text x="71.142" y="1.67" class="g">sudo</text><text x="76.152" y="1.67" class="g">k3s</text></symbol><symbol id="4"><text y="1.67" class="g">kubectl</text><text x="8.016" y="1.67" class="g">create</text><text x="15.03" y="1.67" class="g">configmap</text><text x="25.05" y="1.67" class="g">hello-world</text><text x="37.074" y="1.67" class="g">--from-file</text><text x="49.098" y="1.67" class="g">index.html</text></symbol><symbol id="5"><text y="1.67" class="g">[sudo]</text><text x="7.014" y="1.67" class="g">password</text><text x="16.032" y="1.67" class="g">for</text><text x="20.04" y="1.67" class="g">user:</text></symbol><symbol id="6"><text y="1.67" class="g">configmap/hello-world</text><text x="22.044" y="1.67" class="g">created</text></symbol><symbol id="7"><text y="1.67" class="g">kubectl</text><text x="8.016" y="1.67" class="g">apply</text><text x="14.028" y="1.67" class="g">-f</text><text x="17.034" y="1.67" class="g">hello-world.yml</text></symbol><symbol id="8"><text y="1.67" class="g">deployment.apps/hello-world-nginx</text><text x="34.068" y="1.67" class="g">created</text></symbol><symbol id="9"><text y="1.67" class="g">service/hello-world</text><text x="20.04" y="1.67" class="g">created</text></symbol><symbol id="10"><text y="1.67" class="g">ingress.networking.k8s.io/hello-world</text><text x="38.076" y="1.67" class="g">created</text></symbol><symbol id="11"><text y="1.67" class="f">user@laptop-yavorskyi</text><text x="21.042" y="1.67" class="g">:</text><text x="22.044" y="1.67" class="h">~/Desktop/DevOps/project-week-4/k3s-hello-world</text><text x="69.138" y="1.67" class="g">$</text><path class="i" d="M71.142 0h9v2.171h-9z"/><text x="71.142" y="1.67" class="j">curl loca</text></symbol><symbol id="12"><text y="1.67" class="g">curl</text><text x="5.01" y="1.67" class="g">localhost:80</text></symbol><symbol id="13"><text y="1.67" class="g">&lt;html&gt;</text></symbol><symbol id="14"><text y="1.67" class="g">&lt;head&gt;</text></symbol><symbol id="15"><text x="2.004" y="1.67" class="g">&lt;title&gt;Hello</text><text x="15.03" y="1.67" class="g">World!&lt;/title&gt;</text></symbol><symbol id="16"><text y="1.67" class="g">&lt;/head&gt;</text></symbol><symbol id="17"><text y="1.67" class="g">&lt;body&gt;Hello</text><text x="12.024" y="1.67" class="g">World!&lt;/body&gt;</text></symbol><symbol id="18"><text y="1.67" class="g">&lt;/html&gt;</text></symbol><symbol id="a"><path fill="transparent" d="M0 0h80v24H0z"/></symbol><symbol id="b"><path fill="#6f7683" d="M0 0h1.102v2.171H0z"/></symbol></defs><path class="a" d="M0 0h80v52.104H0z"/><g style="animation-duration:70.514449s;animation-iteration-count:infinite;animation-name:m;animation-timing-function:steps(1,end)"><svg width="2160"><svg><use xlink:href="#a"/><use xlink:href="#b" x="-.004"/></svg><svg x="80"><use xlink:href="#a"/><use xlink:href="#b" x="70.996"/><use xlink:href="#1"/></svg><svg x="160"><use xlink:href="#a"/><use xlink:href="#b" x="70.996"/><use xlink:href="#1"/></svg><svg x="240"><use xlink:href="#a"/><use xlink:href="#b" x="70.996"/><use xlink:href="#1"/></svg><svg x="320"><use xlink:href="#a"/><use xlink:href="#b" x="70.996"/><use xlink:href="#1"/></svg><svg x="400"><use xlink:href="#a"/><use xlink:href="#b" x="70.996"/><use xlink:href="#1"/></svg><svg x="480"><use xlink:href="#a"/><use xlink:href="#b" x="70.996"/><use xlink:href="#1"/></svg><svg x="560"><use xlink:href="#a"/><use xlink:href="#b" x="70.996"/><use xlink:href="#1"/></svg><svg x="640"><use xlink:href="#a"/><use xlink:href="#b" x="70.996"/><use xlink:href="#1"/></svg><svg x="720"><use xlink:href="#a"/><use xlink:href="#b" x="70.996"/><use xlink:href="#1"/></svg><svg x="800"><use xlink:href="#a"/><use xlink:href="#b" x="-.004" y="4.317"/><use xlink:href="#2"/><path class="i" d="M0 2.171h59v2.171H0z"/><text y="3.841" class="j">kubectl create configmap hello-world --from-file index.html</text></svg><svg x="880"><use xlink:href="#a"/><use xlink:href="#b" x="-.004" y="4.317"/><use xlink:href="#3"/><use xlink:href="#4" y="2.171"/></svg><svg x="960"><use xlink:href="#a"/><use xlink:href="#b" x="25.996" y="4.317"/><use xlink:href="#3"/><use xlink:href="#4" y="2.171"/><use xlink:href="#5" y="4.342"/></svg><svg x="1040"><use xlink:href="#a"/><use xlink:href="#b" x="-.004" y="6.488"/><use xlink:href="#3"/><use xlink:href="#4" y="2.171"/><use xlink:href="#5" y="4.342"/></svg><svg x="1120"><use xlink:href="#a"/><use xlink:href="#b" x="-.004" y="8.659"/><use xlink:href="#3"/><use xlink:href="#4" y="2.171"/><use xlink:href="#5" y="4.342"/><use xlink:href="#6" y="6.513"/></svg><svg x="1200"><use xlink:href="#a"/><use xlink:href="#b" x="70.996" y="8.659"/><use xlink:href="#3"/><use xlink:href="#4" y="2.171"/><use xlink:href="#5" y="4.342"/><use xlink:href="#6" y="6.513"/><use xlink:href="#1" y="8.684"/></svg><svg x="1280"><use xlink:href="#a"/><use xlink:href="#b" x="-.004" y="13.001"/><use xlink:href="#3"/><use xlink:href="#4" y="2.171"/><use xlink:href="#5" y="4.342"/><use xlink:href="#6" y="6.513"/><use xlink:href="#2" y="8.684"/><path class="i" d="M0 10.855h32v2.171H0z"/><text y="12.525" class="j">kubectl apply -f hello-world.yml</text></svg><svg x="1360"><use xlink:href="#a"/><use xlink:href="#b" x="-.004" y="13.001"/><use xlink:href="#3"/><use xlink:href="#4" y="2.171"/><use xlink:href="#5" y="4.342"/><use xlink:href="#6" y="6.513"/><use xlink:href="#3" y="8.684"/><use xlink:href="#7" y="10.855"/></svg><svg x="1440"><use xlink:href="#a"/><use xlink:href="#b" x="-.004" y="15.172"/><use xlink:href="#3"/><use xlink:href="#4" y="2.171"/><use xlink:href="#5" y="4.342"/><use xlink:href="#6" y="6.513"/><use xlink:href="#3" y="8.684"/><use xlink:href="#7" y="10.855"/><use xlink:href="#8" y="13.026"/></svg><svg x="1520"><use xlink:href="#a"/><use xlink:href="#b" x="-.004" y="17.343"/><use xlink:href="#3"/><use xlink:href="#4" y="2.171"/><use xlink:href="#5" y="4.342"/><use xlink:href="#6" y="6.513"/><use xlink:href="#3" y="8.684"/><use xlink:href="#7" y="10.855"/><use xlink:href="#8" y="13.026"/><use xlink:href="#9" y="15.197"/></svg><svg x="1600"><use xlink:href="#a"/><use xlink:href="#b" x="-.004" y="19.514"/><use xlink:href="#3"/><use xlink:href="#4" y="2.171"/><use xlink:href="#5" y="4.342"/><use xlink:href="#6" y="6.513"/><use xlink:href="#3" y="8.684"/><use xlink:href="#7" y="10.855"/><use xlink:href="#8" y="13.026"/><use xlink:href="#9" y="15.197"/><use xlink:href="#10" y="17.368"/></svg><svg x="1680"><use xlink:href="#a"/><use xlink:href="#b" x="70.996" y="19.514"/><use xlink:href="#3"/><use xlink:href="#4" y="2.171"/><use xlink:href="#5" y="4.342"/><use xlink:href="#6" y="6.513"/><use xlink:href="#3" y="8.684"/><use xlink:href="#7" y="10.855"/><use xlink:href="#8" y="13.026"/><use xlink:href="#9" y="15.197"/><use xlink:href="#10" y="17.368"/><use xlink:href="#1" y="19.539"/></svg><svg x="1760"><use xlink:href="#a"/><use xlink:href="#b" x="7.996" y="21.685"/><use xlink:href="#3"/><use xlink:href="#4" y="2.171"/><use xlink:href="#5" y="4.342"/><use xlink:href="#6" y="6.513"/><use xlink:href="#3" y="8.684"/><use xlink:href="#7" y="10.855"/><use xlink:href="#8" y="13.026"/><use xlink:href="#9" y="15.197"/><use xlink:href="#10" y="17.368"/><use xlink:href="#11" y="19.539"/><path class="i" d="M0 21.71h8v2.171H0z"/><text y="23.38" class="j">lhost:80</text></svg><svg x="1840"><use xlink:href="#a"/><use xlink:href="#b" x="-.004" y="23.856"/><use xlink:href="#3"/><use xlink:href="#4" y="2.171"/><use xlink:href="#5" y="4.342"/><use xlink:href="#6" y="6.513"/><use xlink:href="#3" y="8.684"/><use xlink:href="#7" y="10.855"/><use xlink:href="#8" y="13.026"/><use xlink:href="#9" y="15.197"/><use xlink:href="#10" y="17.368"/><use xlink:href="#11" y="19.539"/><use xlink:href="#12" y="21.71"/></svg><svg x="1920"><use xlink:href="#a"/><use xlink:href="#b" x="-.004" y="36.882"/><use xlink:href="#3"/><use xlink:href="#4" y="2.171"/><use xlink:href="#5" y="4.342"/><use xlink:href="#6" y="6.513"/><use xlink:href="#3" y="8.684"/><use xlink:href="#7" y="10.855"/><use xlink:href="#8" y="13.026"/><use xlink:href="#9" y="15.197"/><use xlink:href="#10" y="17.368"/><use xlink:href="#11" y="19.539"/><use xlink:href="#12" y="21.71"/><use xlink:href="#13" y="23.881"/><use xlink:href="#14" y="26.052"/><use xlink:href="#15" y="28.223"/><use xlink:href="#16" y="30.394"/><use xlink:href="#17" y="32.565"/><use xlink:href="#18" y="34.736"/></svg><svg x="2000"><use xlink:href="#a"/><use xlink:href="#b" x="70.996" y="36.882"/><use xlink:href="#3"/><use xlink:href="#4" y="2.171"/><use xlink:href="#5" y="4.342"/><use xlink:href="#6" y="6.513"/><use xlink:href="#3" y="8.684"/><use xlink:href="#7" y="10.855"/><use xlink:href="#8" y="13.026"/><use xlink:href="#9" y="15.197"/><use xlink:href="#10" y="17.368"/><use xlink:href="#11" y="19.539"/><use xlink:href="#12" y="21.71"/><use xlink:href="#13" y="23.881"/><use xlink:href="#14" y="26.052"/><use xlink:href="#15" y="28.223"/><use xlink:href="#16" y="30.394"/><use xlink:href="#17" y="32.565"/><use xlink:href="#18" y="34.736"/><use xlink:href="#1" y="36.907"/></svg><svg x="2080"><use xlink:href="#a"/><use xlink:href="#b" x="-.004" y="41.224"/><use xlink:href="#3"/><use xlink:href="#4" y="2.171"/><use xlink:href="#5" y="4.342"/><use xlink:href="#6" y="6.513"/><use xlink:href="#3" y="8.684"/><use xlink:href="#7" y="10.855"/><use xlink:href="#8" y="13.026"/><use xlink:href="#9" y="15.197"/><use xlink:href="#10" y="17.368"/><use xlink:href="#11" y="19.539"/><use xlink:href="#12" y="21.71"/><use xlink:href="#13" y="23.881"/><use xlink:href="#14" y="26.052"/><use xlink:href="#15" y="28.223"/><use xlink:href="#16" y="30.394"/><use xlink:href="#17" y="32.565"/><use xlink:href="#18" y="34.736"/><use xlink:href="#1" y="36.907"/><text y="40.748" class="g">exit</text></svg></svg></g></g></svg></svg>